<svg width="1588" height="1417" viewBox="0 0 1588 1417" fill="none" xmlns="http://www.w3.org/2000/svg">
<path d="M1122.05 519.5C1110.32 514.732 1073.55 514.5 1044.05 534.5C1031.14 543.249 994.742 529.072 1007.05 519.5C1020.55 509 1032.24 503.937 1050.05 498C1071.05 491 1080.55 491 1100.55 484C1113.58 479.439 1126.31 470.274 1131.55 467C1139.55 462 1153.05 436.227 1155.05 435.5C1160.05 433.683 1175.58 436.309 1188.05 440C1204.13 444.759 1223.28 454 1226.05 460C1228.13 464.5 1202.12 498.5 1200.55 509.5C1198.55 523.5 1216.05 553.5 1220.55 614C1221.95 632.811 1183.28 610.612 1177.55 592C1167.55 559.5 1167.55 538 1122.05 519.5Z" fill="#8D8D8D"/>
<ellipse cx="716.049" cy="1074" rx="550" ry="315.5" fill="#262626"/>
<path d="M238.549 1268.5C238.549 1268.5 167.876 1216.86 130.049 1176L56.5489 1078.5C56.5489 1078.5 14.3495 1014.99 4.54889 968.5C-2.1847 936.556 0.548889 885 0.548889 885L169.549 1157.5L247.549 1231L392.049 1283L540.549 1309.5L660.049 1327.5H802.549L924.049 1309.5L1077.55 1268.5L1165.05 1231L1195.55 1215L1264.05 1173.5L1358.05 1086.5C1358.05 1086.5 1324.05 1144.3 1295.55 1176C1262.08 1213.22 1237.97 1229.18 1197.05 1258C1152.91 1289.09 1125.9 1303.49 1077.55 1327.5C1028.86 1351.67 1000.72 1364.11 949.049 1381C897.865 1397.73 868.522 1407.16 815.049 1413.5C762.5 1419.73 732.396 1416.21 679.549 1413.5C625.043 1410.71 540.549 1399 540.549 1399C540.549 1399 436.766 1373.22 374.549 1345.5C318.797 1320.66 238.549 1268.5 238.549 1268.5Z" fill="#454545"/>
<path d="M5.049 918.5C13.3309 990.489 35.7306 1031.06 80.549 1088C119.378 1137.33 204.549 1190.31 204.549 1190.31C204.549 1190.31 178.149 1107.44 186.049 1054.5C194.171 1000.07 211.773 970.051 246.049 927C286.42 876.294 322.618 858.585 380.768 830.138L381.049 830C451.667 795.453 498.066 789.954 576.049 780C655.85 769.814 701.745 775.191 782.049 780C873.628 785.485 927.781 778.788 1015.05 810C1089.14 836.497 1140.75 862.045 1195.05 918.5C1234.05 959.057 1256.88 998.755 1264.55 1054.5C1273.83 1121.99 1195.05 1214.5 1195.05 1214.5C1195.05 1214.5 1271.55 1175.01 1309.55 1136.5C1354.54 1090.9 1381.05 1070 1401.55 1003.5C1414.24 962.33 1417.55 897 1417.55 897C1417.55 897 1410.61 833.935 1391.55 800C1314.05 662 1267.05 628 1109.55 561.5C961.349 498.927 937.049 495.5 693.049 484.5C652.59 482.676 421.037 490.902 279.049 575.5C131.767 663.252 -14.5452 748.181 5.049 918.5Z" fill="#1A1A1A"/>
<path d="M1189.05 440.5C1175.81 436.676 1154.05 436 1154.05 436L1151.55 433L1148.55 428.5L1147.05 424L1147.55 416L1166.05 390L1210.05 327L1273.55 243.5L1313.05 194L1358.05 141.5L1420.55 73L1468.05 28.5L1481.05 16.5L1494.05 8.5L1507.55 3L1518.55 0H1541.55L1552.55 3L1571.55 12L1582.55 23.5L1587.55 35V52.5L1582.55 68.5L1574.05 82L1552.55 97.5L1510.05 141.5L1496.55 155.5L1451.05 210L1397.55 275C1397.55 275 1354.74 324 1327.55 358.5C1294.05 401 1276.55 425.5 1240.55 468.5C1239.6 469.635 1223.46 469.5 1223.05 468.5C1221.51 464.781 1228.3 461.443 1225.55 458.5C1218.55 451 1204.32 444.91 1189.05 440.5Z" fill="#282828"/>
</svg>
